<mxfile host="65bd71144e">
    <diagram id="Cz_WheFDdQsW5oh7_IA2" name="Page-1">
        <mxGraphModel dx="1021" dy="806" grid="1" gridSize="10" guides="1" tooltips="1" connect="1" arrows="1" fold="1" page="1" pageScale="1" pageWidth="1100" pageHeight="850" math="0" shadow="0">
            <root>
                <mxCell id="0"/>
                <mxCell id="1" parent="0"/>
                <mxCell id="2" value="Post" style="swimlane;fontStyle=1;align=center;verticalAlign=top;childLayout=stackLayout;horizontal=1;startSize=26;horizontalStack=0;resizeParent=1;resizeParentMax=0;resizeLast=0;collapsible=1;marginBottom=0;" vertex="1" parent="1">
                    <mxGeometry x="240" y="290" width="540" height="330" as="geometry">
                        <mxRectangle x="-140" y="-60" width="70" height="30" as="alternateBounds"/>
                    </mxGeometry>
                </mxCell>
                <mxCell id="3" value="- id: int&#10;- discussion: Discussion-&gt;id&#10;- parent: Post-&gt;id&#10;- userid: int&#10;- created: int&#10;- modified: int&#10;- message: String&#10;- messageformat: int&#10;- attachment: char&#10;- mailed: int&#10;- reviewed: intÂ &#10;- timereviewed: int" style="text;strokeColor=none;fillColor=none;align=left;verticalAlign=top;spacingLeft=4;spacingRight=4;overflow=hidden;rotatable=0;points=[[0,0.5],[1,0.5]];portConstraint=eastwest;" vertex="1" parent="2">
                    <mxGeometry y="26" width="540" height="184" as="geometry"/>
                </mxCell>
                <mxCell id="4" value="" style="line;strokeWidth=1;fillColor=none;align=left;verticalAlign=middle;spacingTop=-1;spacingLeft=3;spacingRight=3;rotatable=0;labelPosition=right;points=[];portConstraint=eastwest;strokeColor=inherit;" vertex="1" parent="2">
                    <mxGeometry y="210" width="540" height="8" as="geometry"/>
                </mxCell>
                <mxCell id="5" value="+ construct(discussion:int, parent:post, userid:int, attachment:array) // same as add_new_post()&#10;+ delete_post($post:Post, $deletechildren:boolean, $cm:object, $moodleoverflow:object):static void&#10;+ update_post($message:String):boolean&#10;+ get_post_full(): Post&#10;+ add_attachment(attachment:char): void&#10;+ get_attachment(): char&#10;+ print_post(...): $renderer-&gt;render:post($mustachdata)" style="text;strokeColor=none;fillColor=none;align=left;verticalAlign=top;spacingLeft=4;spacingRight=4;overflow=hidden;rotatable=0;points=[[0,0.5],[1,0.5]];portConstraint=eastwest;" vertex="1" parent="2">
                    <mxGeometry y="218" width="540" height="112" as="geometry"/>
                </mxCell>
            </root>
        </mxGraphModel>
    </diagram>
</mxfile>